<?xml version="1.0" encoding="utf-8"?>
<!-- Generator: Adobe Illustrator 15.1.0, SVG Export Plug-In . SVG Version: 6.00 Build 0)  -->
<!DOCTYPE svg PUBLIC "-//W3C//DTD SVG 1.1//EN" "http://www.w3.org/Graphics/SVG/1.1/DTD/svg11.dtd">
<svg version="1.1" id="Camada_1" xmlns="http://www.w3.org/2000/svg" xmlns:xlink="http://www.w3.org/1999/xlink" x="0px" y="0px"
	 width="533px" height="440.355px" viewBox="0 0 533 440.355" enable-background="new 0 0 533 440.355" xml:space="preserve">
<path fill="none" stroke="#211915" stroke-miterlimit="10" d="M113.081,326.971c0,0-0.164,1.635-0.997,4.135"/>
<path fill="none" stroke="#211915" stroke-miterlimit="10" d="M210.5,264.105"/>
<path fill="#555457" stroke="#211915" stroke-miterlimit="10" d="M104.213,359.83"/>
<g>
	<g>
		<linearGradient id="SVGID_1_" gradientUnits="userSpaceOnUse" x1="54.5454" y1="361.9395" x2="330.1025" y2="361.9395">
			<stop  offset="0.0242" style="stop-color:#000000"/>
			<stop  offset="0.0909" style="stop-color:#2E2E2E"/>
			<stop  offset="0.1758" style="stop-color:#000000"/>
			<stop  offset="0.2485" style="stop-color:#403F41"/>
			<stop  offset="0.3273" style="stop-color:#000000"/>
			<stop  offset="0.4" style="stop-color:#403F41"/>
			<stop  offset="0.4909" style="stop-color:#000000"/>
			<stop  offset="0.5515" style="stop-color:#2B2A2C"/>
			<stop  offset="0.6545" style="stop-color:#000000"/>
			<stop  offset="0.7273" style="stop-color:#2B2A2C"/>
			<stop  offset="0.7879" style="stop-color:#000000"/>
			<stop  offset="0.8545" style="stop-color:#2B2A2C"/>
			<stop  offset="0.9212" style="stop-color:#000000"/>
			<stop  offset="0.9879" style="stop-color:#403F41"/>
			<stop  offset="1" style="stop-color:#151516"/>
		</linearGradient>
		<path fill="url(#SVGID_1_)" stroke="#000000" stroke-miterlimit="10" d="M325.511,323.321c0,0,10.332,18.999,0,59.666
			c-1.334,0.334-19.334,48.668-152.333,20.334c0-0.334-93.667-18.098-114.333-35.549c0,1.549-10.507-30.785,1.333-56.118
			c0,0-2,13,51,11c-0.333,0.333,44,23.999,120,31.333C230.177,353.987,281.843,348.655,325.511,323.321z"/>
		<g>
			<path fill="#211915" stroke="#211915" stroke-miterlimit="10" d="M61.584,263.835c0,0,2.333-50.647,32.333-92.148
				c1,1,47.5-41,135-53.5c0.5-0.5,59.976,1.638,75.238,63.819c0.223,0.22-139.052-89.486-207.978,100.431
				c-0.166,1.262-1.885-5.688-2.76-4.938c-0.165-0.137-1.817,3.283-1.971,5.092c-0.075,0.527-2.467-7.717-2.904-6.592
				c-0.125,0.125-2.741,3.725-2.527,5.582c0.019-0.096-2.348-7.145-2.098-7.395C83.73,274.062,85.417,253.983,61.584,263.835z"/>
			<g>
				<path fill="#EED1C3" stroke="#211915" stroke-miterlimit="10" d="M82.628,273.57c0,0,0.145-0.606,0.269-1.568
					c0.64-4.971,0.7-19.43-22.877-8.595c-0.348,0.16-0.7,0.325-1.058,0.496c-0.667,0-25.334,30-6.667,44
					c-0.263,0,6.145,9.384,14.938,7.37c0.808-0.185,1.635-0.466,2.479-0.859c1.586-0.738,3.232-1.873,4.916-3.511
					c0.333-0.666-1,13.334-1.333,14.334s26-8.001,89.667,24.666c1,0,62.332,31.666,113.333,6c1,0.334,46.333-18.667,47-27
					c-0.666,3,19.334-48.334,3-72c0.666-1-0.668-60.666-25.334-79.333c0.668,1.333-118.668-81.334-199,87.333
					c0,0-5.582,7.667-6.207,20.167c0,1-0.875-10.5-2.5-9.375c-0.25,0.25-2.875,5.75-1.625,9c-0.25-0.5-1.25-10.875-2.875-10.75
					c-0.375,0.25-3.625,4.875-2.75,9.25c0.202,0.203-2.288-11.222-2.298-11.226c-0.066-0.025-0.133-0.034-0.202-0.024l-0.25,0.313"
					/>
				<path fill="#FFFFFF" stroke="#211915" stroke-miterlimit="10" d="M316.187,235.409c0,15.694-12.648,28.417-28.25,28.417
					c-22.933,0-28.25-12.723-28.25-28.417s12.649-28.417,28.25-28.417C303.538,206.992,316.187,219.715,316.187,235.409z"/>
				<ellipse fill="#FFFFFF" stroke="#211915" stroke-miterlimit="10" cx="189.026" cy="235.409" rx="28.25" ry="28.417"/>
				<path fill="#A0CDEC" stroke="#211915" stroke-miterlimit="10" d="M188.06,243.591c-0.754,5.457,1.188,10.269,4.336,10.748
					c3.149,0.479,6.312-3.558,7.066-9.014c0.754-5.458-1.188-10.269-4.336-10.748C191.977,234.099,188.813,238.134,188.06,243.591z"
					/>
				<path fill="#211915" stroke="#211915" stroke-miterlimit="10" d="M195.751,244.667c-0.346,2.524-1.374,4.459-2.295,4.319
					c-0.921-0.14-1.387-2.299-1.04-4.823c0.347-2.523,1.375-4.457,2.295-4.318C195.633,239.984,196.099,242.144,195.751,244.667z"/>
				<path fill="#A0CDEC" stroke="#211915" stroke-miterlimit="10" d="M285.659,243.591c-0.754,5.457,1.188,10.269,4.336,10.748
					c3.15,0.479,6.313-3.558,7.066-9.014c0.754-5.458-1.188-10.269-4.336-10.748C289.577,234.099,286.413,238.134,285.659,243.591z"
					/>
				<path fill="#211915" stroke="#211915" stroke-miterlimit="10" d="M293.351,244.667c-0.346,2.524-1.373,4.459-2.295,4.319
					c-0.92-0.14-1.387-2.299-1.039-4.823c0.346-2.523,1.375-4.457,2.295-4.318C293.233,239.984,293.698,242.144,293.351,244.667z"/>
				<path fill="#EED1C3" stroke="#211915" stroke-miterlimit="10" d="M291.687,251.452c0,0,4,1.495,8.5,8.328
					c0,0.333,2.834,7.334-1.5,13.167c-0.5,0.333-6-5.333-49.167-2"/>
				<path fill="none" stroke="#211915" stroke-miterlimit="10" d="M289.687,262.169c0,0,5.666,4.167,9,10.5"/>
				<path fill="#EED1C3" stroke="#211915" stroke-miterlimit="10" d="M248.186,258.654c26.729-1.441,36.463,1.752,39.889,3.022
					c0.932,0.346,1.398,0.549,1.611,0.478c4-3,1.5-10.5,2-10.995c-47.667-10.328-53.333-5.672-53.167-5.839
					c-1-0.167-15.667,11.223-15.667,11.223"/>
				<path fill="#211915" d="M267.652,305.202c-6.871,6.335-27.325,12.399-33.898,2.762c-3.609-5.293-12.279-0.297-8.635,5.047
					c10.603,15.546,37.549,10.379,49.604-0.738C279.472,307.893,272.384,300.839,267.652,305.202z"/>
				<path fill="#EED1C3" d="M264.062,258.737l11.246,0.625c0,0,0.246,4.438,0,5.688s-11.246-0.375-11.246-0.375V258.737z"/>
			</g>
		</g>
		<linearGradient id="SVGID_2_" gradientUnits="userSpaceOnUse" x1="7.5156" y1="397.2949" x2="103.0518" y2="397.2949">
			<stop  offset="0.0242" style="stop-color:#000000"/>
			<stop  offset="0.0909" style="stop-color:#2E2E2E"/>
			<stop  offset="0.1515" style="stop-color:#000000"/>
			<stop  offset="0.2485" style="stop-color:#403F41"/>
			<stop  offset="0.2545" style="stop-color:#141414"/>
			<stop  offset="0.3273" style="stop-color:#000000"/>
			<stop  offset="0.4" style="stop-color:#403F41"/>
			<stop  offset="0.4788" style="stop-color:#000000"/>
			<stop  offset="0.5576" style="stop-color:#2B2A2C"/>
			<stop  offset="0.6545" style="stop-color:#000000"/>
			<stop  offset="0.7273" style="stop-color:#2B2A2C"/>
			<stop  offset="0.7879" style="stop-color:#000000"/>
			<stop  offset="0.8545" style="stop-color:#2B2A2C"/>
			<stop  offset="0.9212" style="stop-color:#000000"/>
			<stop  offset="0.9879" style="stop-color:#403F41"/>
			<stop  offset="1" style="stop-color:#151516"/>
		</linearGradient>
		<path fill="url(#SVGID_2_)" stroke="#000000" stroke-miterlimit="10" d="M36.88,374.933c-0.25,0.5-12.75,8.75-28.5,10.5
			c-0.75,0-5.25,26.75,17.25,43.5c0.5-0.75,10.898-13.5,31.449-15c0.301,0,39.893-9.438,45.972-27.969
			c0.227,0.066-42.442-12.686-44.207-18.52C58.844,367.444,45.63,360.183,36.88,374.933z"/>
	</g>
	<path fill="#403F41" stroke="#000000" stroke-miterlimit="10" d="M59.718,314.532c0,0,7.574,4.22,14.947-3.548l-1.34,14.421
		C73.325,325.405,61.021,316.037,59.718,314.532z"/>
</g>
<g>
	<path fill="#F4EC72" stroke="#000000" d="M476.016,416.855l45-233.5c0,0,46.5-138.5-103.5-148c0,0-109.838-13-116.419,121
		c0.419,1,33.919,23.276,33.419,92.638c0.5,1.862,20.924,32.672-1.788,73.767c-0.212,1.595,21.788,50.595-19.212,94.095
		C313.016,417.855,476.016,416.855,476.016,416.855z"/>
	<polygon fill="#202021" stroke="#000000" points="302.32,141.39 341.016,149.855 332.728,165.355 301.097,156.355 	"/>
	<path fill="#202021" stroke="#000000" d="M344.516,146.105c0,0-3.25-9.5-17.25,9.5c-0.5,0.5-9.25,17.25,4,20.25
		c0.25-0.5,13.25-28.75,13.25-28.75"/>
	
		<ellipse transform="matrix(0.916 0.4012 -0.4012 0.916 101.7145 -137.2732)" fill="#202021" stroke="#000000" cx="378.613" cy="174.219" rx="47.635" ry="49.362"/>
	
		<ellipse transform="matrix(0.916 0.4012 -0.4012 0.916 115.13 -173.7947)" fill="#202021" stroke="#000000" cx="472.521" cy="187.989" rx="47.635" ry="49.362"/>
	<circle fill="#FFFFFF" stroke="#000000" cx="378.613" cy="174.219" r="35.313"/>
	<circle fill="#FFFFFF" stroke="#000000" cx="472.521" cy="187.989" r="35.313"/>
	
		<ellipse transform="matrix(-0.9281 -0.3723 0.3723 -0.9281 701.7449 490.0119)" fill="#4F1F08" stroke="#000000" cx="398.183" cy="177.252" rx="9.083" ry="14.757"/>
	
		<ellipse transform="matrix(-0.9281 -0.3723 0.3723 -0.9281 882.1934 556.1144)" fill="#4F1F08" stroke="#000000" cx="494.79" cy="192.881" rx="9.083" ry="14.757"/>
	<ellipse transform="matrix(0.9245 0.3812 -0.3812 0.9245 97.6389 -138.4078)" cx="398.183" cy="177.252" rx="3.917" ry="7.167"/>
	<ellipse transform="matrix(0.9245 0.3812 -0.3812 0.9245 110.8919 -174.0554)" cx="494.789" cy="192.881" rx="3.917" ry="7.167"/>
	<path fill="#4B7FBD" stroke="#211915" d="M338.338,360.021l132.512,10.335c0,0-13.662,24.37-12.998,46.602
		c-0.002,0-144.336-0.103-144.336-0.103S337.993,392.854,338.338,360.021z"/>
	<path fill="#4B7FBD" stroke="#000000" d="M494.789,319.44c0,0-57.107,34.915-76.94,63.415
		c-0.166,0.667,22.333,22.334,22.333,22.334l47.989-51.407L494.789,319.44z"/>
	<path fill="#4B7FBD" stroke="#211915" d="M337.812,367.665c0,0,7.598,5.467,9.79,10.53c-0.08-0.085-5.568,6.501-15.208,10.737
		C332.312,389.131,336.654,379.137,337.812,367.665z"/>
	
		<ellipse transform="matrix(-0.845 -0.5348 0.5348 -0.845 604.9216 943.1377)" fill="#211915" stroke="#211915" cx="439.143" cy="383.902" rx="7.583" ry="9.513"/>
	<path fill="#4B7FBD" stroke="#000000" d="M352.906,416.958l2.5-11.769c0,0,28.999,11.834,58.833,3.667c0.5,0.333,0,8.066,0,8.066
		L352.906,416.958z"/>
	<g>
		<path fill="none" stroke="#000000" d="M410.712,11.427c0,0,13.175,8.345,17.7,24.94c1.138,0.624-0.364-20.037-4.602-24.902"/>
		<path fill="none" stroke="#000000" d="M454.863,19.987c0,0-15.386,2.554-26.017,16.075c-1.29,0.133,8.14-18.312,13.938-21.142"/>
		<line fill="none" stroke="#000000" x1="435.206" y1="7.327" x2="428.398" y2="36.716"/>
	</g>
</g>
</svg>
